<?xml version="1.0" encoding="UTF-8" standalone="no"?>
<!DOCTYPE svg PUBLIC "-//W3C//DTD SVG 1.1//EN"
 "http://www.w3.org/Graphics/SVG/1.1/DTD/svg11.dtd">
<!-- Generated by graphviz version 12.2.1 (20241206.2353)
 -->
<!-- Title: fiber_resume Pages: 1 -->
<svg width="1842pt" height="1094pt"
 viewBox="0.00 0.00 1842.00 1094.12" xmlns="http://www.w3.org/2000/svg" xmlns:xlink="http://www.w3.org/1999/xlink">
<g id="graph0" class="graph" transform="scale(1 1) rotate(0) translate(4 1090.12)">
<title>fiber_resume</title>
<polygon fill="white" stroke="none" points="-4,4 -4,-1090.12 1838,-1090.12 1838,4 -4,4"/>
<g id="clust1" class="cluster">
<title>cluster_entry</title>
<polygon fill="none" stroke="black" stroke-dasharray="5,2" points="1103,-736.88 1103,-823.62 1469,-823.62 1469,-736.88 1103,-736.88"/>
<text text-anchor="middle" x="1286" y="-806.33" font-family="Times,serif" font-size="14.00">Entry Points</text>
</g>
<g id="clust2" class="cluster">
<title>cluster_trampoline</title>
<path fill="none" stroke="blue" d="M661,-146.5C661,-146.5 982,-146.5 982,-146.5 988,-146.5 994,-152.5 994,-158.5 994,-158.5 994,-542.38 994,-542.38 994,-548.38 988,-554.38 982,-554.38 982,-554.38 661,-554.38 661,-554.38 655,-554.38 649,-548.38 649,-542.38 649,-542.38 649,-158.5 649,-158.5 649,-152.5 655,-146.5 661,-146.5"/>
<text text-anchor="middle" x="821.5" y="-537.08" font-family="Times,serif" font-size="14.00">do_fiber_resume trampoline</text>
<text text-anchor="middle" x="821.5" y="-520.58" font-family="Times,serif" font-size="14.00">(fiber.rs:307)</text>
</g>
<g id="clust3" class="cluster">
<title>cluster_resume</title>
<path fill="none" stroke="darkgreen" d="M77,-363.5C77,-363.5 425,-363.5 425,-363.5 431,-363.5 437,-369.5 437,-375.5 437,-375.5 437,-679.5 437,-679.5 437,-685.5 431,-691.5 425,-691.5 425,-691.5 77,-691.5 77,-691.5 71,-691.5 65,-685.5 65,-679.5 65,-679.5 65,-375.5 65,-375.5 65,-369.5 71,-363.5 77,-363.5"/>
<text text-anchor="middle" x="251" y="-674.2" font-family="Times,serif" font-size="14.00">resume_suspended</text>
<text text-anchor="middle" x="251" y="-657.7" font-family="Times,serif" font-size="14.00">(core.rs:411)</text>
</g>
<g id="clust4" class="cluster">
<title>cluster_jit</title>
<polygon fill="none" stroke="purple" stroke-dasharray="5,2" points="979,-857.25 979,-1078.12 1565,-1078.12 1565,-857.25 979,-857.25"/>
<text text-anchor="middle" x="1272" y="-1060.83" font-family="Times,serif" font-size="14.00">JIT Dispatch</text>
</g>
<g id="clust5" class="cluster">
<title>cluster_toplevel</title>
<polygon fill="none" stroke="brown" stroke-dasharray="5,2" points="8,-730.5 8,-938.88 344,-938.88 344,-730.5 8,-730.5"/>
<text text-anchor="middle" x="176" y="-921.58" font-family="Times,serif" font-size="14.00">Top&#45;level event loops</text>
</g>
<g id="clust6" class="cluster">
<title>cluster_results</title>
<polygon fill="none" stroke="black" stroke-dasharray="5,2" points="1390,-8 1390,-107.5 1826,-107.5 1826,-8 1390,-8"/>
<text text-anchor="middle" x="1608" y="-90.2" font-family="Times,serif" font-size="14.00">Result Handling</text>
</g>
<!-- prim_call -->
<g id="node1" class="node">
<title>prim_call</title>
<polygon fill="none" stroke="black" points="1461,-791.12 1307,-791.12 1307,-744.88 1461,-744.88 1461,-791.12"/>
<text text-anchor="middle" x="1384" y="-777.62" font-family="monospace" font-size="10.00">handle_primitive_signal</text>
<text text-anchor="middle" x="1384" y="-764.88" font-family="monospace" font-size="10.00">(signal.rs)</text>
<text text-anchor="middle" x="1384" y="-752.12" font-family="monospace" font-size="10.00">SIG_RESUME detected</text>
</g>
<!-- hfrs -->
<g id="node3" class="node">
<title>hfrs</title>
<polygon fill="none" stroke="black" points="1713,-647.62 1541,-647.62 1541,-601.38 1713,-601.38 1713,-647.62"/>
<text text-anchor="middle" x="1627" y="-634.12" font-family="monospace" font-size="10.00">handle_fiber_resume_signal</text>
<text text-anchor="middle" x="1627" y="-621.38" font-family="monospace" font-size="10.00">(fiber.rs:169)</text>
<text text-anchor="middle" x="1627" y="-608.62" font-family="monospace" font-size="10.00">Call position</text>
</g>
<!-- prim_call&#45;&gt;hfrs -->
<g id="edge1" class="edge">
<title>prim_call&#45;&gt;hfrs</title>
<path fill="none" stroke="black" d="M1422.77,-744.42C1465.09,-719.78 1532.91,-680.29 1578.67,-653.64"/>
<polygon fill="black" stroke="black" points="1580.18,-656.82 1587.06,-648.76 1576.65,-650.77 1580.18,-656.82"/>
<text text-anchor="middle" x="1508.71" y="-706.7" font-family="monospace" font-size="9.00">Call</text>
</g>
<!-- hfrs_tail -->
<g id="node4" class="node">
<title>hfrs_tail</title>
<polygon fill="none" stroke="black" points="1192,-647.62 990,-647.62 990,-601.38 1192,-601.38 1192,-647.62"/>
<text text-anchor="middle" x="1091" y="-634.12" font-family="monospace" font-size="10.00">handle_fiber_resume_signal_tail</text>
<text text-anchor="middle" x="1091" y="-621.38" font-family="monospace" font-size="10.00">(fiber.rs:246)</text>
<text text-anchor="middle" x="1091" y="-608.62" font-family="monospace" font-size="10.00">TailCall position</text>
</g>
<!-- prim_call&#45;&gt;hfrs_tail -->
<g id="edge2" class="edge">
<title>prim_call&#45;&gt;hfrs_tail</title>
<path fill="none" stroke="black" d="M1331.31,-744.45C1320.32,-739.8 1308.79,-734.96 1298,-730.5 1255.06,-712.76 1242.61,-712.18 1201,-691.5 1178.65,-680.39 1154.79,-666.36 1135.02,-654.09"/>
<polygon fill="black" stroke="black" points="1137,-651.2 1126.66,-648.85 1133.28,-657.13 1137,-651.2"/>
<text text-anchor="middle" x="1292.53" y="-706.7" font-family="monospace" font-size="9.00">TailCall</text>
</g>
<!-- jit_prim -->
<g id="node2" class="node">
<title>jit_prim</title>
<polygon fill="none" stroke="black" points="1289,-791.12 1111,-791.12 1111,-744.88 1289,-744.88 1289,-791.12"/>
<text text-anchor="middle" x="1200" y="-777.62" font-family="monospace" font-size="10.00">jit_handle_primitive_signal</text>
<text text-anchor="middle" x="1200" y="-764.88" font-family="monospace" font-size="10.00">(calls.rs)</text>
<text text-anchor="middle" x="1200" y="-752.12" font-family="monospace" font-size="10.00">SIG_RESUME detected</text>
</g>
<!-- hfrs_jit -->
<g id="node5" class="node">
<title>hfrs_jit</title>
<polygon fill="none" stroke="black" points="972,-647.62 776,-647.62 776,-601.38 972,-601.38 972,-647.62"/>
<text text-anchor="middle" x="874" y="-634.12" font-family="monospace" font-size="10.00">handle_fiber_resume_signal_jit</text>
<text text-anchor="middle" x="874" y="-621.38" font-family="monospace" font-size="10.00">(fiber.rs:750)</text>
<text text-anchor="middle" x="874" y="-608.62" font-family="monospace" font-size="10.00">JIT context → JitValue</text>
</g>
<!-- jit_prim&#45;&gt;hfrs_jit -->
<g id="edge3" class="edge">
<title>jit_prim&#45;&gt;hfrs_jit</title>
<path fill="none" stroke="black" d="M1121.06,-744.43C1078.65,-731.15 1025.98,-712.8 981,-691.5 958.56,-680.87 934.93,-666.65 915.6,-654.13"/>
<polygon fill="black" stroke="black" points="917.74,-651.36 907.46,-648.79 913.9,-657.21 917.74,-651.36"/>
</g>
<!-- dfr -->
<g id="node6" class="node">
<title>dfr</title>
<polygon fill="none" stroke="black" points="948,-505.38 800,-505.38 800,-469.38 948,-469.38 948,-505.38"/>
<text text-anchor="middle" x="874" y="-490.62" font-family="monospace" font-size="10.00">do_fiber_resume</text>
<text text-anchor="middle" x="874" y="-477.88" font-family="monospace" font-size="10.00">(&amp;handle, fiber_value)</text>
</g>
<!-- hfrs&#45;&gt;dfr -->
<g id="edge9" class="edge">
<title>hfrs&#45;&gt;dfr</title>
<path fill="none" stroke="black" d="M1554.32,-600.95C1541.99,-595.92 1529.6,-590.05 1518.5,-583.38 1506.5,-576.15 1508.04,-567.5 1495,-562.38 1453.11,-545.91 1134.45,-561.46 1090,-554.38 1033.9,-545.43 972.11,-525.47 929.04,-509.83"/>
<polygon fill="black" stroke="black" points="930.25,-506.54 919.66,-506.37 927.83,-513.11 930.25,-506.54"/>
<text text-anchor="middle" x="1565.75" y="-574.83" font-family="monospace" font-size="9.00">inline call</text>
<text text-anchor="middle" x="1565.75" y="-564.33" font-family="monospace" font-size="9.00">(Rust stack grows)</text>
</g>
<!-- caught -->
<g id="node30" class="node">
<title>caught</title>
<polygon fill="none" stroke="black" points="1528,-68.62 1398,-68.62 1398,-22.38 1528,-22.38 1528,-68.62"/>
<text text-anchor="middle" x="1463" y="-55.12" font-family="monospace" font-size="10.00">caught by mask</text>
<text text-anchor="middle" x="1463" y="-42.38" font-family="monospace" font-size="10.00">push value to stack</text>
<text text-anchor="middle" x="1463" y="-29.62" font-family="monospace" font-size="10.00">return None</text>
</g>
<!-- hfrs&#45;&gt;caught -->
<g id="edge38" class="edge">
<title>hfrs&#45;&gt;caught</title>
<path fill="none" stroke="black" stroke-dasharray="1,5" d="M1637.51,-601.02C1641.58,-589.42 1644.51,-575.07 1641,-562.38 1612.12,-458.05 1553.39,-454.99 1515.75,-353.5 1480.46,-258.35 1468.56,-137.74 1464.73,-80.12"/>
<polygon fill="black" stroke="black" points="1468.23,-80.08 1464.12,-70.32 1461.24,-80.52 1468.23,-80.08"/>
<text text-anchor="middle" x="1560.38" y="-334.45" font-family="monospace" font-size="9.00">mask.covers(bits)</text>
</g>
<!-- uncaught_err -->
<g id="node31" class="node">
<title>uncaught_err</title>
<polygon fill="none" stroke="black" points="1818,-68.62 1694,-68.62 1694,-22.38 1818,-22.38 1818,-68.62"/>
<text text-anchor="middle" x="1756" y="-55.12" font-family="monospace" font-size="10.00">uncaught SIG_ERROR</text>
<text text-anchor="middle" x="1756" y="-42.38" font-family="monospace" font-size="10.00">set fiber.signal</text>
<text text-anchor="middle" x="1756" y="-29.62" font-family="monospace" font-size="10.00">return None</text>
</g>
<!-- hfrs&#45;&gt;uncaught_err -->
<g id="edge39" class="edge">
<title>hfrs&#45;&gt;uncaught_err</title>
<path fill="none" stroke="black" d="M1660.99,-601.02C1667.48,-595.74 1673.85,-589.77 1679,-583.38 1708.3,-546.99 1724,-535.09 1724,-488.38 1724,-488.38 1724,-488.38 1724,-187 1724,-149.62 1734.9,-108.01 1743.98,-79.85"/>
<polygon fill="black" stroke="black" points="1747.27,-81.05 1747.11,-70.45 1740.63,-78.83 1747.27,-81.05"/>
<text text-anchor="middle" x="1747.62" y="-334.45" font-family="monospace" font-size="9.00">SIG_ERROR</text>
</g>
<!-- uncaught_other -->
<g id="node32" class="node">
<title>uncaught_other</title>
<polygon fill="none" stroke="black" points="1676,-75 1546,-75 1546,-16 1676,-16 1676,-75"/>
<text text-anchor="middle" x="1611" y="-61.5" font-family="monospace" font-size="10.00">uncaught non&#45;error</text>
<text text-anchor="middle" x="1611" y="-48.75" font-family="monospace" font-size="10.00">build FiberResume +</text>
<text text-anchor="middle" x="1611" y="-36" font-family="monospace" font-size="10.00">caller frames</text>
<text text-anchor="middle" x="1611" y="-23.25" font-family="monospace" font-size="10.00">return Some(bits)</text>
</g>
<!-- hfrs&#45;&gt;uncaught_other -->
<g id="edge40" class="edge">
<title>hfrs&#45;&gt;uncaught_other</title>
<path fill="none" stroke="black" d="M1627,-601.03C1627,-574.21 1627,-528.02 1627,-488.38 1627,-488.38 1627,-488.38 1627,-187 1627,-153.06 1622.33,-114.8 1618.04,-86.79"/>
<polygon fill="black" stroke="black" points="1621.5,-86.27 1616.48,-76.95 1614.59,-87.37 1621.5,-86.27"/>
<text text-anchor="middle" x="1655.88" y="-334.45" font-family="monospace" font-size="9.00">e.g. SIG_IO</text>
</g>
<!-- hfrs_tail&#45;&gt;dfr -->
<g id="edge10" class="edge">
<title>hfrs_tail&#45;&gt;dfr</title>
<path fill="none" stroke="black" d="M1054.68,-600.88C1014.97,-576.16 951.66,-536.73 911.49,-511.72"/>
<polygon fill="black" stroke="black" points="913.43,-508.81 903.09,-506.49 909.73,-514.75 913.43,-508.81"/>
</g>
<!-- hfrs_jit&#45;&gt;dfr -->
<g id="edge11" class="edge">
<title>hfrs_jit&#45;&gt;dfr</title>
<path fill="none" stroke="black" d="M874,-600.88C874,-577.77 874,-541.81 874,-516.79"/>
<polygon fill="black" stroke="black" points="877.5,-517 874,-507 870.5,-517 877.5,-517"/>
</g>
<!-- dfr_single -->
<g id="node7" class="node">
<title>dfr_single</title>
<polygon fill="none" stroke="black" points="830,-412.62 682,-412.62 682,-376.62 830,-376.62 830,-412.62"/>
<text text-anchor="middle" x="756" y="-397.88" font-family="monospace" font-size="10.00">do_fiber_resume_single</text>
<text text-anchor="middle" x="756" y="-385.12" font-family="monospace" font-size="10.00">(fiber.rs:420)</text>
</g>
<!-- dfr&#45;&gt;dfr_single -->
<g id="edge4" class="edge">
<title>dfr&#45;&gt;dfr_single</title>
<path fill="none" stroke="black" d="M848.18,-469.07C838.15,-462.16 826.65,-454.02 816.5,-446.25 805.84,-438.1 794.48,-428.77 784.51,-420.35"/>
<polygon fill="black" stroke="black" points="786.84,-417.75 776.96,-413.93 782.31,-423.08 786.84,-417.75"/>
<text text-anchor="middle" x="842.75" y="-437.7" font-family="monospace" font-size="9.00">first call</text>
</g>
<!-- dfr_check -->
<g id="node8" class="node">
<title>dfr_check</title>
<polygon fill="none" stroke="black" points="874,-304 761.51,-286 874,-268 986.49,-286 874,-304"/>
<text text-anchor="middle" x="874" y="-282.88" font-family="monospace" font-size="10.00">bits == SIG_SWITCH?</text>
</g>
<!-- dfr_single&#45;&gt;dfr_check -->
<g id="edge5" class="edge">
<title>dfr_single&#45;&gt;dfr_check</title>
<path fill="none" stroke="black" d="M775.22,-376.26C795.43,-358 827.28,-329.22 849.33,-309.3"/>
<polygon fill="black" stroke="black" points="851.63,-311.93 856.7,-302.63 846.94,-306.74 851.63,-311.93"/>
</g>
<!-- wcf -->
<g id="node10" class="node">
<title>wcf</title>
<polygon fill="none" stroke="black" points="791,-1038.88 631,-1038.88 631,-992.62 791,-992.62 791,-1038.88"/>
<text text-anchor="middle" x="711" y="-1025.38" font-family="monospace" font-size="10.00">with_child_fiber</text>
<text text-anchor="middle" x="711" y="-1012.62" font-family="monospace" font-size="10.00">(fiber.rs:50)</text>
<text text-anchor="middle" x="711" y="-999.88" font-family="monospace" font-size="10.00">swap parent↔child fibers</text>
</g>
<!-- dfr_single&#45;&gt;wcf -->
<g id="edge12" class="edge">
<title>dfr_single&#45;&gt;wcf</title>
<path fill="none" stroke="black" d="M753.56,-412.98C751.2,-431.22 748,-460.75 748,-486.38 748,-884.25 748,-884.25 748,-884.25 748,-918.46 736.09,-955.86 725.78,-981.82"/>
<polygon fill="black" stroke="black" points="722.66,-980.22 722.08,-990.8 729.13,-982.89 722.66,-980.22"/>
</g>
<!-- dfr_check&#45;&gt;dfr -->
<g id="edge6" class="edge">
<title>dfr_check&#45;&gt;dfr</title>
<path fill="none" stroke="blue" stroke-dasharray="5,2" d="M874,-304.45C874,-338.85 874,-415.73 874,-457.7"/>
<polygon fill="blue" stroke="blue" points="870.5,-457.52 874,-467.52 877.5,-457.52 870.5,-457.52"/>
<text text-anchor="middle" x="926.5" y="-401.82" font-family="monospace" font-size="9.00">YES: push pending</text>
<text text-anchor="middle" x="926.5" y="-391.32" font-family="monospace" font-size="9.00">to fiber_stack</text>
<text text-anchor="middle" x="926.5" y="-380.82" font-family="monospace" font-size="9.00">(loop, no recursion)</text>
</g>
<!-- dfr_unwind -->
<g id="node9" class="node">
<title>dfr_unwind</title>
<polygon fill="none" stroke="black" points="862,-221.5 738,-188 862,-154.5 986,-188 862,-221.5"/>
<text text-anchor="middle" x="862" y="-191.25" font-family="monospace" font-size="10.00">Unwind fiber_stack</text>
<text text-anchor="middle" x="862" y="-178.5" font-family="monospace" font-size="10.00">mask.covers(bits)?</text>
</g>
<!-- dfr_check&#45;&gt;dfr_unwind -->
<g id="edge7" class="edge">
<title>dfr_check&#45;&gt;dfr_unwind</title>
<path fill="none" stroke="black" d="M871.85,-267.84C870.61,-257.84 868.97,-244.76 867.39,-232.13"/>
<polygon fill="black" stroke="black" points="870.87,-231.75 866.16,-222.26 863.93,-232.62 870.87,-231.75"/>
<text text-anchor="middle" x="908.8" y="-241.45" font-family="monospace" font-size="9.00">NO: real signal</text>
</g>
<!-- dfr_unwind&#45;&gt;dfr_single -->
<g id="edge8" class="edge">
<title>dfr_unwind&#45;&gt;dfr_single</title>
<path fill="none" stroke="blue" stroke-dasharray="5,2" d="M788.73,-202.01C750.82,-212.86 707.77,-232.54 684.75,-268 662.73,-301.93 696.75,-342.98 724.93,-368.7"/>
<polygon fill="blue" stroke="blue" points="722.46,-371.19 732.28,-375.17 727.09,-365.94 722.46,-371.19"/>
<text text-anchor="middle" x="718.88" y="-293.2" font-family="monospace" font-size="9.00">caught:</text>
<text text-anchor="middle" x="718.88" y="-282.7" font-family="monospace" font-size="9.00">resume parent</text>
<text text-anchor="middle" x="718.88" y="-272.2" font-family="monospace" font-size="9.00">(loop back)</text>
</g>
<!-- dfr_unwind&#45;&gt;caught -->
<g id="edge37" class="edge">
<title>dfr_unwind&#45;&gt;caught</title>
<path fill="none" stroke="black" d="M927.46,-171.7C1039.46,-145.51 1267.25,-92.26 1386.43,-64.4"/>
<polygon fill="black" stroke="black" points="1387.2,-67.81 1396.15,-62.13 1385.61,-61 1387.2,-67.81"/>
<text text-anchor="middle" x="1212.38" y="-127.95" font-family="monospace" font-size="9.00">caught</text>
<text text-anchor="middle" x="1212.38" y="-117.45" font-family="monospace" font-size="9.00">(fiber_stack empty)</text>
</g>
<!-- first_q -->
<g id="node11" class="node">
<title>first_q</title>
<polygon fill="none" stroke="black" points="623,-901.25 526.09,-883.25 623,-865.25 719.91,-883.25 623,-901.25"/>
<text text-anchor="middle" x="623" y="-880.12" font-family="monospace" font-size="10.00">is_first_resume?</text>
</g>
<!-- wcf&#45;&gt;first_q -->
<g id="edge13" class="edge">
<title>wcf&#45;&gt;first_q</title>
<path fill="none" stroke="black" d="M695.87,-992.32C680.22,-969.11 655.84,-932.95 639.65,-908.94"/>
<polygon fill="black" stroke="black" points="642.6,-907.06 634.11,-900.72 636.8,-910.97 642.6,-907.06"/>
</g>
<!-- dfr_first -->
<g id="node12" class="node">
<title>dfr_first</title>
<polygon fill="none" stroke="black" points="720,-791.12 542,-791.12 542,-744.88 720,-744.88 720,-791.12"/>
<text text-anchor="middle" x="631" y="-777.62" font-family="monospace" font-size="10.00">do_fiber_first_resume</text>
<text text-anchor="middle" x="631" y="-764.88" font-family="monospace" font-size="10.00">(fiber.rs:470)</text>
<text text-anchor="middle" x="631" y="-752.12" font-family="monospace" font-size="10.00">build_closure_env + execute</text>
</g>
<!-- first_q&#45;&gt;dfr_first -->
<g id="edge14" class="edge">
<title>first_q&#45;&gt;dfr_first</title>
<path fill="none" stroke="black" d="M624.22,-865.05C625.38,-848.6 627.16,-823.34 628.61,-802.85"/>
<polygon fill="black" stroke="black" points="632.09,-803.18 629.31,-792.95 625.11,-802.68 632.09,-803.18"/>
<text text-anchor="middle" x="634.4" y="-833.58" font-family="monospace" font-size="9.00">New</text>
</g>
<!-- dfr_subseq -->
<g id="node13" class="node">
<title>dfr_subseq</title>
<polygon fill="none" stroke="black" points="524,-791.12 352,-791.12 352,-744.88 524,-744.88 524,-791.12"/>
<text text-anchor="middle" x="438" y="-777.62" font-family="monospace" font-size="10.00">do_fiber_subsequent_resume</text>
<text text-anchor="middle" x="438" y="-764.88" font-family="monospace" font-size="10.00">(fiber.rs:533)</text>
<text text-anchor="middle" x="438" y="-752.12" font-family="monospace" font-size="10.00">take fiber.suspended</text>
</g>
<!-- first_q&#45;&gt;dfr_subseq -->
<g id="edge15" class="edge">
<title>first_q&#45;&gt;dfr_subseq</title>
<path fill="none" stroke="black" d="M601.42,-869.04C572.89,-851.58 521.89,-820.35 484.42,-797.42"/>
<polygon fill="black" stroke="black" points="486.38,-794.51 476.02,-792.27 482.72,-800.48 486.38,-794.51"/>
<text text-anchor="middle" x="568.26" y="-833.58" font-family="monospace" font-size="9.00">Paused</text>
</g>
<!-- exec_save -->
<g id="node14" class="node">
<title>exec_save</title>
<polygon fill="none" stroke="black" points="1400,-647.62 1210,-647.62 1210,-601.38 1400,-601.38 1400,-647.62"/>
<text text-anchor="middle" x="1305" y="-634.12" font-family="monospace" font-size="10.00">execute_bytecode_saving_stack</text>
<text text-anchor="middle" x="1305" y="-621.38" font-family="monospace" font-size="10.00">(execute.rs:205)</text>
<text text-anchor="middle" x="1305" y="-608.62" font-family="monospace" font-size="10.00">save/restore caller stack</text>
</g>
<!-- dfr_first&#45;&gt;exec_save -->
<g id="edge16" class="edge">
<title>dfr_first&#45;&gt;exec_save</title>
<path fill="none" stroke="black" d="M720.22,-766.95C834.86,-764.27 1038.46,-750.57 1201,-691.5 1224.9,-682.81 1249.03,-667.96 1268.03,-654.54"/>
<polygon fill="black" stroke="black" points="1269.93,-657.49 1275.97,-648.78 1265.82,-651.82 1269.93,-657.49"/>
</g>
<!-- rs -->
<g id="node17" class="node">
<title>rs</title>
<polygon fill="none" stroke="black" points="364,-642.5 216,-642.5 216,-606.5 364,-606.5 364,-642.5"/>
<text text-anchor="middle" x="290" y="-627.75" font-family="monospace" font-size="10.00">resume_suspended</text>
<text text-anchor="middle" x="290" y="-615" font-family="monospace" font-size="10.00">(frames, resume_value)</text>
</g>
<!-- dfr_subseq&#45;&gt;rs -->
<g id="edge21" class="edge">
<title>dfr_subseq&#45;&gt;rs</title>
<path fill="none" stroke="black" d="M425.06,-744.64C416.43,-730.78 404.27,-713.09 391,-699.5 372.21,-680.25 347.98,-662.32 327.97,-648.93"/>
<polygon fill="black" stroke="black" points="330.07,-646.12 319.79,-643.57 326.23,-651.98 330.07,-646.12"/>
</g>
<!-- dispatch -->
<g id="node16" class="node">
<title>dispatch</title>
<polygon fill="none" stroke="black" points="1277,-510.5 1099,-510.5 1099,-464.25 1277,-464.25 1277,-510.5"/>
<text text-anchor="middle" x="1188" y="-497" font-family="monospace" font-size="10.00">execute_bytecode_inner_impl</text>
<text text-anchor="middle" x="1188" y="-484.25" font-family="monospace" font-size="10.00">(dispatch.rs)</text>
<text text-anchor="middle" x="1188" y="-471.5" font-family="monospace" font-size="10.00">bytecode dispatch loop</text>
</g>
<!-- exec_save&#45;&gt;dispatch -->
<g id="edge17" class="edge">
<title>exec_save&#45;&gt;dispatch</title>
<path fill="none" stroke="black" d="M1285.42,-600.88C1266.07,-578.53 1236.32,-544.18 1214.78,-519.31"/>
<polygon fill="black" stroke="black" points="1217.44,-517.03 1208.25,-511.76 1212.15,-521.61 1217.44,-517.03"/>
</g>
<!-- exec_from_ip -->
<g id="node15" class="node">
<title>exec_from_ip</title>
<polygon fill="none" stroke="black" points="720,-647.62 560,-647.62 560,-601.38 720,-601.38 720,-647.62"/>
<text text-anchor="middle" x="640" y="-634.12" font-family="monospace" font-size="10.00">execute_bytecode_from_ip</text>
<text text-anchor="middle" x="640" y="-621.38" font-family="monospace" font-size="10.00">(execute.rs:102)</text>
<text text-anchor="middle" x="640" y="-608.62" font-family="monospace" font-size="10.00">resume at saved IP</text>
</g>
<!-- exec_from_ip&#45;&gt;dispatch -->
<g id="edge23" class="edge">
<title>exec_from_ip&#45;&gt;dispatch</title>
<path fill="none" stroke="black" d="M720.42,-609.36C809.34,-593.48 946.8,-568.13 998,-554.38 1038.98,-543.36 1083.86,-527.94 1119.71,-514.77"/>
<polygon fill="black" stroke="black" points="1120.46,-518.22 1128.63,-511.46 1118.03,-511.65 1120.46,-518.22"/>
</g>
<!-- call_inner -->
<g id="node21" class="node">
<title>call_inner</title>
<polygon fill="none" stroke="black" points="1369,-417.75 1257,-417.75 1257,-371.5 1369,-371.5 1369,-417.75"/>
<text text-anchor="middle" x="1313" y="-404.25" font-family="monospace" font-size="10.00">call_inner</text>
<text text-anchor="middle" x="1313" y="-391.5" font-family="monospace" font-size="10.00">(call.rs:142)</text>
<text text-anchor="middle" x="1313" y="-378.75" font-family="monospace" font-size="10.00">Call instruction</text>
</g>
<!-- dispatch&#45;&gt;call_inner -->
<g id="edge25" class="edge">
<title>dispatch&#45;&gt;call_inner</title>
<path fill="none" stroke="black" d="M1209.18,-463.88C1218.53,-454.59 1229.95,-444.07 1241.25,-435.75 1246.83,-431.64 1252.87,-427.64 1259.01,-423.87"/>
<polygon fill="black" stroke="black" points="1260.55,-427.02 1267.36,-418.9 1256.98,-421 1260.55,-427.02"/>
<text text-anchor="middle" x="1270.12" y="-437.7" font-family="monospace" font-size="9.00">Call opcode</text>
</g>
<!-- rs_type -->
<g id="node18" class="node">
<title>rs_type</title>
<polygon fill="none" stroke="black" points="290,-505.38 219.04,-487.38 290,-469.38 360.96,-487.38 290,-505.38"/>
<text text-anchor="middle" x="290" y="-484.25" font-family="monospace" font-size="10.00">frame type?</text>
</g>
<!-- rs&#45;&gt;rs_type -->
<g id="edge18" class="edge">
<title>rs&#45;&gt;rs_type</title>
<path fill="none" stroke="black" d="M290,-606.11C290,-583.61 290,-544.1 290,-517.11"/>
<polygon fill="black" stroke="black" points="293.5,-517.21 290,-507.21 286.5,-517.21 293.5,-517.21"/>
<text text-anchor="middle" x="326.75" y="-569.58" font-family="monospace" font-size="9.00">for each frame</text>
</g>
<!-- rs_fiber -->
<g id="node19" class="node">
<title>rs_fiber</title>
<polygon fill="none" stroke="black" points="251,-417.75 73,-417.75 73,-371.5 251,-371.5 251,-417.75"/>
<text text-anchor="middle" x="162" y="-404.25" font-family="monospace" font-size="10.00">SuspendedFrame::FiberResume</text>
<text text-anchor="middle" x="162" y="-391.5" font-family="monospace" font-size="10.00">set pending_fiber_resume</text>
<text text-anchor="middle" x="162" y="-378.75" font-family="monospace" font-size="10.00">return SIG_SWITCH</text>
</g>
<!-- rs_type&#45;&gt;rs_fiber -->
<g id="edge19" class="edge">
<title>rs_type&#45;&gt;rs_fiber</title>
<path fill="none" stroke="black" d="M271.93,-473.57C254.13,-460.94 226.29,-441.21 203.09,-424.76"/>
<polygon fill="black" stroke="black" points="205.22,-421.97 195.03,-419.05 201.17,-427.68 205.22,-421.97"/>
<text text-anchor="middle" x="258.71" y="-437.7" font-family="monospace" font-size="9.00">FiberResume</text>
</g>
<!-- rs_bc -->
<g id="node20" class="node">
<title>rs_bc</title>
<polygon fill="none" stroke="black" points="429,-417.75 269,-417.75 269,-371.5 429,-371.5 429,-417.75"/>
<text text-anchor="middle" x="349" y="-404.25" font-family="monospace" font-size="10.00">SuspendedFrame::Bytecode</text>
<text text-anchor="middle" x="349" y="-391.5" font-family="monospace" font-size="10.00">restore stack + env</text>
<text text-anchor="middle" x="349" y="-378.75" font-family="monospace" font-size="10.00">push resume_value</text>
</g>
<!-- rs_type&#45;&gt;rs_bc -->
<g id="edge20" class="edge">
<title>rs_type&#45;&gt;rs_bc</title>
<path fill="none" stroke="black" d="M299.74,-471.39C307.48,-459.5 318.56,-442.45 328.26,-427.53"/>
<polygon fill="black" stroke="black" points="331.04,-429.68 333.55,-419.38 325.17,-425.86 331.04,-429.68"/>
<text text-anchor="middle" x="342.27" y="-437.7" font-family="monospace" font-size="9.00">Bytecode</text>
</g>
<!-- rs_fiber&#45;&gt;dfr_check -->
<g id="edge24" class="edge">
<title>rs_fiber&#45;&gt;dfr_check</title>
<path fill="none" stroke="red" stroke-dasharray="5,2" d="M229.87,-371.07C239.9,-368.23 250.16,-365.6 260,-363.5 473.27,-318.07 530.71,-331.69 747,-304 765.46,-301.64 785.41,-299 803.91,-296.53"/>
<polygon fill="red" stroke="red" points="804.27,-300.01 813.72,-295.21 803.34,-293.07 804.27,-300.01"/>
<text text-anchor="middle" x="612.99" y="-344.95" font-family="monospace" font-size="9.00">SIG_SWITCH</text>
<text text-anchor="middle" x="612.99" y="-334.45" font-family="monospace" font-size="9.00">(via do_fiber_resume</text>
<text text-anchor="middle" x="612.99" y="-323.95" font-family="monospace" font-size="9.00">trampoline loop)</text>
</g>
<!-- rs_bc&#45;&gt;exec_from_ip -->
<g id="edge22" class="edge">
<title>rs_bc&#45;&gt;exec_from_ip</title>
<path fill="none" stroke="black" d="M377.48,-417.93C430.27,-459.26 543.26,-547.75 602.31,-593.98"/>
<polygon fill="black" stroke="black" points="600.08,-596.68 610.11,-600.09 604.39,-591.17 600.08,-596.68"/>
</g>
<!-- call_inner&#45;&gt;prim_call -->
<g id="edge26" class="edge">
<title>call_inner&#45;&gt;prim_call</title>
<path fill="none" stroke="red" stroke-dasharray="1,5" d="M1340.36,-418.14C1353.62,-430.44 1368.65,-446.73 1378,-464.25 1407.42,-519.37 1402.07,-539.28 1409,-601.38 1413.44,-641.18 1415.38,-651.96 1409,-691.5 1406.7,-705.73 1402.12,-720.92 1397.5,-733.91"/>
<polygon fill="red" stroke="red" points="1394.23,-732.67 1394.02,-743.26 1400.79,-735.11 1394.23,-732.67"/>
<text text-anchor="middle" x="1443.88" y="-574.83" font-family="monospace" font-size="9.00"> &#160;← Rust stack</text>
<text text-anchor="middle" x="1443.88" y="-564.33" font-family="monospace" font-size="9.00"> &#160;&#160;&#160;&#160;recursion</text>
</g>
<!-- call_inner&#45;&gt;exec_save -->
<g id="edge27" class="edge">
<title>call_inner&#45;&gt;exec_save</title>
<path fill="none" stroke="black" d="M1312.22,-417.98C1310.81,-458.12 1307.84,-542.62 1306.18,-589.81"/>
<polygon fill="black" stroke="black" points="1302.69,-589.61 1305.83,-599.72 1309.68,-589.85 1302.69,-589.61"/>
<text text-anchor="middle" x="1342.06" y="-489.32" font-family="monospace" font-size="9.00">closure</text>
<text text-anchor="middle" x="1342.06" y="-478.82" font-family="monospace" font-size="9.00">(re&#45;entrant)</text>
</g>
<!-- jit_call -->
<g id="node22" class="node">
<title>jit_call</title>
<polygon fill="none" stroke="black" points="1292,-1033.75 1192,-1033.75 1192,-997.75 1292,-997.75 1292,-1033.75"/>
<text text-anchor="middle" x="1242" y="-1019" font-family="monospace" font-size="10.00">elle_jit_call</text>
<text text-anchor="middle" x="1242" y="-1006.25" font-family="monospace" font-size="10.00">(calls.rs:175)</text>
</g>
<!-- jit_native -->
<g id="node23" class="node">
<title>jit_native</title>
<polygon fill="none" stroke="black" points="1337,-901.25 1147,-901.25 1147,-865.25 1337,-865.25 1337,-901.25"/>
<text text-anchor="middle" x="1242" y="-886.5" font-family="monospace" font-size="10.00">native fn dispatch</text>
<text text-anchor="middle" x="1242" y="-873.75" font-family="monospace" font-size="10.00">→ jit_handle_primitive_signal</text>
</g>
<!-- jit_call&#45;&gt;jit_native -->
<g id="edge28" class="edge">
<title>jit_call&#45;&gt;jit_native</title>
<path fill="none" stroke="black" d="M1242,-997.42C1242,-975.87 1242,-938.79 1242,-912.97"/>
<polygon fill="black" stroke="black" points="1245.5,-913.16 1242,-903.16 1238.5,-913.16 1245.5,-913.16"/>
<text text-anchor="middle" x="1263" y="-954.08" font-family="monospace" font-size="9.00">NativeFn</text>
</g>
<!-- jit_jit -->
<g id="node24" class="node">
<title>jit_jit</title>
<polygon fill="none" stroke="black" points="1129,-901.25 987,-901.25 987,-865.25 1129,-865.25 1129,-901.25"/>
<text text-anchor="middle" x="1058" y="-886.5" font-family="monospace" font-size="10.00">JIT&#45;to&#45;JIT fast path</text>
<text text-anchor="middle" x="1058" y="-873.75" font-family="monospace" font-size="10.00">(callee in jit_cache)</text>
</g>
<!-- jit_call&#45;&gt;jit_jit -->
<g id="edge29" class="edge">
<title>jit_call&#45;&gt;jit_jit</title>
<path fill="none" stroke="black" d="M1217.57,-997.42C1185.26,-974.51 1128.18,-934.03 1091.77,-908.2"/>
<polygon fill="black" stroke="black" points="1093.95,-905.46 1083.77,-902.53 1089.9,-911.17 1093.95,-905.46"/>
<text text-anchor="middle" x="1192.89" y="-959.33" font-family="monospace" font-size="9.00">Closure</text>
<text text-anchor="middle" x="1192.89" y="-948.83" font-family="monospace" font-size="9.00">(cached)</text>
</g>
<!-- jit_interp -->
<g id="node25" class="node">
<title>jit_interp</title>
<polygon fill="none" stroke="black" points="1557,-901.25 1355,-901.25 1355,-865.25 1557,-865.25 1557,-901.25"/>
<text text-anchor="middle" x="1456" y="-886.5" font-family="monospace" font-size="10.00">interpreter fallback</text>
<text text-anchor="middle" x="1456" y="-873.75" font-family="monospace" font-size="10.00">→ execute_bytecode_saving_stack</text>
</g>
<!-- jit_call&#45;&gt;jit_interp -->
<g id="edge30" class="edge">
<title>jit_call&#45;&gt;jit_interp</title>
<path fill="none" stroke="black" d="M1270.42,-997.42C1308.31,-974.31 1375.51,-933.34 1417.8,-907.54"/>
<polygon fill="black" stroke="black" points="1419.46,-910.63 1426.17,-902.44 1415.81,-904.66 1419.46,-910.63"/>
<text text-anchor="middle" x="1375.25" y="-959.33" font-family="monospace" font-size="9.00">Closure</text>
<text text-anchor="middle" x="1375.25" y="-948.83" font-family="monospace" font-size="9.00">(no cache)</text>
</g>
<!-- jit_native&#45;&gt;jit_prim -->
<g id="edge31" class="edge">
<title>jit_native&#45;&gt;jit_prim</title>
<path fill="none" stroke="black" d="M1235.62,-865.05C1229.44,-848.37 1219.89,-822.63 1212.24,-801.99"/>
<polygon fill="black" stroke="black" points="1215.61,-801.02 1208.85,-792.86 1209.05,-803.46 1215.61,-801.02"/>
<text text-anchor="middle" x="1252.25" y="-833.58" font-family="monospace" font-size="9.00">SIG_RESUME</text>
</g>
<!-- jit_interp&#45;&gt;exec_save -->
<g id="edge32" class="edge">
<title>jit_interp&#45;&gt;exec_save</title>
<path fill="none" stroke="black" d="M1465.78,-864.93C1483.88,-830.33 1517.71,-751.52 1483,-699.5 1466.2,-674.32 1439.05,-657.7 1410.97,-646.73"/>
<polygon fill="black" stroke="black" points="1412.19,-643.45 1401.6,-643.31 1409.79,-650.02 1412.19,-643.45"/>
<text text-anchor="middle" x="1524.28" y="-764.7" font-family="monospace" font-size="9.00">re&#45;entrant</text>
</g>
<!-- jit_ytc -->
<g id="node26" class="node">
<title>jit_ytc</title>
<polygon fill="none" stroke="black" points="1521,-1045.62 1343,-1045.62 1343,-985.88 1521,-985.88 1521,-1045.62"/>
<text text-anchor="middle" x="1432" y="-1032.12" font-family="monospace" font-size="10.00">elle_jit_yield_through_call</text>
<text text-anchor="middle" x="1432" y="-1019.38" font-family="monospace" font-size="10.00">(suspend.rs)</text>
<text text-anchor="middle" x="1432" y="-1006.62" font-family="monospace" font-size="10.00">save caller frame</text>
<text text-anchor="middle" x="1432" y="-993.88" font-family="monospace" font-size="10.00">⚠ env reconstruction</text>
</g>
<!-- exec_sched -->
<g id="node27" class="node">
<title>exec_sched</title>
<polygon fill="none" stroke="black" points="194,-906.38 16,-906.38 16,-860.12 194,-860.12 194,-906.38"/>
<text text-anchor="middle" x="105" y="-892.88" font-family="monospace" font-size="10.00">execute_scheduled</text>
<text text-anchor="middle" x="105" y="-880.12" font-family="monospace" font-size="10.00">(mod.rs:209)</text>
<text text-anchor="middle" x="105" y="-867.38" font-family="monospace" font-size="10.00">SIG_IO + SIG_SWITCH handler</text>
</g>
<!-- hsw -->
<g id="node29" class="node">
<title>hsw</title>
<polygon fill="none" stroke="black" points="329,-797.5 163,-797.5 163,-738.5 329,-738.5 329,-797.5"/>
<text text-anchor="middle" x="246" y="-784" font-family="monospace" font-size="10.00">handle_sig_switch</text>
<text text-anchor="middle" x="246" y="-771.25" font-family="monospace" font-size="10.00">(mod.rs:132)</text>
<text text-anchor="middle" x="246" y="-758.5" font-family="monospace" font-size="10.00">take pending_fiber_resume</text>
<text text-anchor="middle" x="246" y="-745.75" font-family="monospace" font-size="10.00">take caller_frames</text>
</g>
<!-- exec_sched&#45;&gt;hsw -->
<g id="edge33" class="edge">
<title>exec_sched&#45;&gt;hsw</title>
<path fill="none" stroke="black" d="M130.33,-859.71C140.51,-850.81 152.44,-840.59 163.5,-831.62 174.52,-822.69 186.59,-813.31 198,-804.61"/>
<polygon fill="black" stroke="black" points="199.93,-807.55 205.78,-798.72 195.7,-801.97 199.93,-807.55"/>
<text text-anchor="middle" x="210.75" y="-833.58" font-family="monospace" font-size="9.00">bits == SIG_SWITCH</text>
</g>
<!-- exec_bc -->
<g id="node28" class="node">
<title>exec_bc</title>
<polygon fill="none" stroke="black" points="336,-906.38 212,-906.38 212,-860.12 336,-860.12 336,-906.38"/>
<text text-anchor="middle" x="274" y="-892.88" font-family="monospace" font-size="10.00">execute_bytecode</text>
<text text-anchor="middle" x="274" y="-880.12" font-family="monospace" font-size="10.00">(mod.rs:73)</text>
<text text-anchor="middle" x="274" y="-867.38" font-family="monospace" font-size="10.00">SIG_SWITCH handler</text>
</g>
<!-- exec_bc&#45;&gt;hsw -->
<g id="edge34" class="edge">
<title>exec_bc&#45;&gt;hsw</title>
<path fill="none" stroke="black" d="M268.47,-859.88C264.86,-845.28 260.05,-825.82 255.81,-808.66"/>
<polygon fill="black" stroke="black" points="259.28,-808.12 253.48,-799.25 252.48,-809.8 259.28,-808.12"/>
<text text-anchor="middle" x="310.58" y="-833.58" font-family="monospace" font-size="9.00">bits == SIG_SWITCH</text>
</g>
<!-- hsw&#45;&gt;dfr -->
<g id="edge35" class="edge">
<title>hsw&#45;&gt;dfr</title>
<path fill="none" stroke="black" d="M319.22,-738.09C327.19,-735.35 335.22,-732.76 343,-730.5 363.93,-724.42 370.65,-728.29 391,-720.5 414.99,-711.32 424.66,-711.32 441,-691.5 467.97,-658.79 441.39,-630.45 472.25,-601.38 558.48,-520.14 698.45,-496.58 788.33,-490.15"/>
<polygon fill="black" stroke="black" points="788.32,-493.66 798.07,-489.52 787.87,-486.68 788.32,-493.66"/>
<text text-anchor="middle" x="511.62" y="-626.45" font-family="monospace" font-size="9.00">do_fiber_resume</text>
<text text-anchor="middle" x="511.62" y="-615.95" font-family="monospace" font-size="9.00">(re&#45;entrant)</text>
</g>
<!-- hsw&#45;&gt;rs -->
<g id="edge36" class="edge">
<title>hsw&#45;&gt;rs</title>
<path fill="none" stroke="black" d="M255.01,-738.02C262.69,-713.31 273.67,-678.01 281.27,-653.57"/>
<polygon fill="black" stroke="black" points="284.53,-654.89 284.15,-644.3 277.84,-652.81 284.53,-654.89"/>
<text text-anchor="middle" x="327.06" y="-711.95" font-family="monospace" font-size="9.00">resume_suspended</text>
<text text-anchor="middle" x="327.06" y="-701.45" font-family="monospace" font-size="9.00">(caller_frames, result)</text>
</g>
<!-- note_stack -->
<g id="node33" class="node">
<title>note_stack</title>
<polygon fill="lightyellow" stroke="black" points="1799,-1038.88 1573,-1038.88 1573,-992.62 1805,-992.62 1805,-1032.88 1799,-1038.88"/>
<polyline fill="none" stroke="black" points="1799,-1038.88 1799,-1032.88"/>
<polyline fill="none" stroke="black" points="1805,-1032.88 1799,-1032.88"/>
<text text-anchor="middle" x="1689" y="-1025.38" font-family="monospace" font-size="10.00">Red dotted = Rust stack recursion</text>
<text text-anchor="middle" x="1689" y="-1012.62" font-family="monospace" font-size="10.00">Blue dashed = trampoline (iterative)</text>
<text text-anchor="middle" x="1689" y="-999.88" font-family="monospace" font-size="10.00">Purple = JIT paths</text>
</g>
</g>
</svg>
