<?xml version="1.0" encoding="UTF-8"?>
<svg xmlns="http://www.w3.org/2000/svg" width="2719.3" height="5987.199999999999" viewBox="-8 -8 2719.3 5987.199999999999" class="mermaid">
  <style>

.mermaid {
  font-family: trebuchet ms, verdana, arial, sans-serif;
  font-size: 16px;
}

.node rect,
.node polygon,
.node circle,
.node ellipse,
.node path {
  fill: #ECECFF;
  stroke: #9370DB;
  stroke-width: 1px;
}

.node line {
  stroke: #9370DB;
  stroke-width: 1px;
}

.node .label {
  fill: #333333;
}

.node text {
  fill: #333333;
  font-family: trebuchet ms, verdana, arial, sans-serif;
  font-size: 16px;
}

.edge-path {
  fill: none;
  stroke: #333333;
  stroke-width: 1px;
}

.edge-label {
  fill: #333333;
  font-family: trebuchet ms, verdana, arial, sans-serif;
}

.edge-label-bg {
  fill: rgba(232, 232, 232, 0.8);
}

.subgraph {
  fill: #ffffde;
  stroke: #aaaa33;
  stroke-width: 1px;
}

.subgraph-title {
  fill: #333333;
  font-weight: bold;
}

.cluster rect {
  fill: #ffffde;
  stroke: #aaaa33;
  stroke-width: 1px;
  rx: 5px;
  ry: 5px;
}

.cluster-label {
  fill: #333333;
  font-family: trebuchet ms, verdana, arial, sans-serif;
  font-size: 16px;
  font-weight: bold;
}

marker path {
  fill: #333333;
  stroke: #333333;
}

  </style>
  <defs>
    <marker id="arrow_point" viewBox="0 0 10 10" refX="10" refY="5" markerWidth="8" markerHeight="8" orient="auto" markerUnits="userSpaceOnUse">
      <path d="M 0 0 L 10 5 L 0 10 z"/>
    </marker>
    <marker id="arrow_point_start" viewBox="0 0 10 10" refX="4.5" refY="5" markerWidth="8" markerHeight="8" orient="auto" markerUnits="userSpaceOnUse">
      <path d="M 0 5 L 10 10 L 10 0 z"/>
    </marker>
    <marker id="arrow_cross" viewBox="0 0 11 11" refX="12" refY="5.2" markerWidth="11" markerHeight="11" orient="auto" markerUnits="userSpaceOnUse">
      <path d="M 1 1 L 10 10 M 10 1 L 1 10" stroke-width="2" fill="none"/>
    </marker>
    <marker id="arrow_cross_start" viewBox="0 0 11 11" refX="-1" refY="5.2" markerWidth="11" markerHeight="11" orient="auto" markerUnits="userSpaceOnUse">
      <path d="M 1 1 L 10 10 M 10 1 L 1 10" fill="none" stroke-width="2"/>
    </marker>
    <marker id="arrow_circle" viewBox="0 0 10 10" refX="11" refY="5" markerWidth="11" markerHeight="11" orient="auto" markerUnits="userSpaceOnUse">
      <circle cx="5" cy="5" r="5"/>
    </marker>
    <marker id="arrow_circle_start" viewBox="0 0 10 10" refX="-1" refY="5" markerWidth="11" markerHeight="11" orient="auto" markerUnits="userSpaceOnUse">
      <circle cx="5" cy="5" r="5"/>
    </marker>
  </defs>
  <g class="root">
    <g class="clusters">

    </g>
    <g class="edgePaths">
      <g class="edge" id="edge-L-block0-block9-0">
        <path d="M 602.27 564.83 C 604.01 587.02, 605.76 609.21, 606.63 625.27 C 607.50 641.33, 607.50 651.27, 607.50 661.20" class="edge-path" stroke-width="1" marker-end="url(#arrow_point)" fill="none"/>
      </g>
      <g class="edge" id="edge-L-block0-block3-0">
        <path d="M 688.07 391.40 C 784.54 471.40, 881.02 551.40, 929.26 697.87 C 977.50 844.33, 977.50 1057.27, 982.82 1185.32 C 998.77 1356.53, 1009.41 1399.70, 1009.41 1399.70" class="edge-path" marker-end="url(#arrow_point)" fill="none" stroke-width="1"/>
      </g>
      <g class="edge" id="edge-L-block9-block10-0">
        <path d="M 757.5 950.8 L 689.2000000000003 950.8" class="edge-path" stroke-width="1" marker-end="url(#arrow_point)" fill="none"/>
      </g>
      <g class="edge" id="edge-L-block9-block3-0">
        <path d="M 607.50 1240.40 C 607.50 1250.33, 607.50 1260.27, 664.26 1305.63 C 721.01 1351.00, 834.53 1431.81, 948.04 1512.61" class="edge-path" fill="none" stroke-width="1" marker-end="url(#arrow_point)"/>
      </g>
      <g class="edge" id="edge-L-block10-block11-0">
        <path d="M 805.75 1179.56 C 801.34 1209.77, 796.92 1239.99, 704.86 1301.57 C 612.80 1363.15, 433.10 1456.10, 253.40 1549.05" class="edge-path" marker-end="url(#arrow_point)" fill="none" stroke-width="1"/>
      </g>
      <g class="edge" id="edge-L-block10-block3-0">
        <path d="M 902.34 1121.28 C 920.73 1170.92, 939.11 1220.56, 955.69 1269.29 C 972.28 1318.02, 987.05 1365.83, 1001.83 1413.65" class="edge-path" fill="none" marker-end="url(#arrow_point)" stroke-width="1"/>
      </g>
      <g class="edge" id="edge-L-block11-block1-0">
        <path d="M 175.00 1763.20 C 175.00 1811.80, 175.00 1860.40, 145.83 1938.73 C 116.67 2017.07, 58.33 2125.13, 29.17 2770.80 C 0.00 3416.47, 0.00 4599.73, 164.25 5206.91 C 657.00 5845.18, 985.50 5876.27, 985.50 5876.27" class="edge-path" marker-end="url(#arrow_point)" stroke-width="1" fill="none"/>
      </g>
      <g class="edge" id="edge-L-block3-block12-0">
        <path d="M 906.2 1589.6 L 856.2000000000003 1589.6" class="edge-path" stroke-width="1" fill="none" marker-end="url(#arrow_point)"/>
      </g>
      <g class="edge" id="edge-L-block3-block4-0">
        <path d="M 1056.20 1865.60 C 1056.20 1880.07, 1056.20 1894.53, 995.35 1943.34 C 934.49 1992.15, 812.79 2075.31, 691.08 2158.46" class="edge-path" fill="none" stroke-width="1" marker-end="url(#arrow_point)"/>
      </g>
      <g class="edge" id="edge-L-block12-block13-0">
        <path d="M 856.2000000000003 1589.6 L 1563.8 1589.6" class="edge-path" fill="none" stroke-width="1" marker-end="url(#arrow_point)"/>
      </g>
      <g class="edge" id="edge-L-block12-block4-0">
        <path d="M 706.20 1884.00 L 643.81 2071.48" class="edge-path" fill="none" marker-end="url(#arrow_point)" stroke-width="1"/>
      </g>
      <g class="edge" id="edge-L-block13-block14-0">
        <path d="M 1793.60 1727.38 L 1919.30 1986.00" class="edge-path" fill="none" stroke-width="1" marker-end="url(#arrow_point)"/>
      </g>
      <g class="edge" id="edge-L-block13-block4-0">
        <path d="M 1625.75 1711.19 C 1578.00 1777.12, 1530.25 1843.06, 1377.15 1922.54 C 1224.05 2002.02, 965.61 2095.03, 707.16 2188.05" class="edge-path" marker-end="url(#arrow_point)" fill="none" stroke-width="1"/>
      </g>
      <g class="edge" id="edge-L-block14-block1-0">
        <path d="M 1985.10 2480.40 C 1985.10 3581.27, 1985.10 4682.13, 1865.43 5247.42 C 1745.77 5812.71, 1506.43 5842.42, 1267.10 5872.12" class="edge-path" marker-end="url(#arrow_point)" stroke-width="1" fill="none"/>
      </g>
      <g class="edge" id="edge-L-block4-block15-0">
        <path d="M 431.7000000000003 2233.2 L 556.7000000000003 2233.2" class="edge-path" fill="none" stroke-width="1" marker-end="url(#arrow_point)"/>
      </g>
      <g class="edge" id="edge-L-block4-block5-0">
        <path d="M 518.24 2392.44 L 450.56 2620.42" class="edge-path" marker-end="url(#arrow_point)" stroke-width="1" fill="none"/>
      </g>
      <g class="edge" id="edge-L-block15-block16-0">
        <path d="M 320.74 2358.90 C 275.50 2425.06, 230.25 2491.23, 207.62 2838.22 C 185.00 3185.20, 185.00 3813.00, 185.00 4440.80" class="edge-path" marker-end="url(#arrow_point)" fill="none" stroke-width="1"/>
      </g>
      <g class="edge" id="edge-L-block15-block5-0">
        <path d="M 373.64 2462.71 C 369.09 2494.28, 364.55 2525.84, 368.05 2564.32 C 371.55 2602.81, 383.11 2648.21, 394.66 2693.62" class="edge-path" fill="none" stroke-width="1" marker-end="url(#arrow_point)"/>
      </g>
      <g class="edge" id="edge-L-block16-block17-0">
        <path d="M 185.00 5029.60 C 185.00 5037.93, 185.00 5046.27, 185.00 5054.60 C 185.00 5062.93, 185.00 5071.27, 185.00 5079.60" class="edge-path" stroke-width="1" fill="none" marker-end="url(#arrow_point)"/>
      </g>
      <g class="edge" id="edge-L-block16-block5-0">
        <path d="M 217.13583233478766 4503.871926929076 L 411.96377932456835 3101.413353957205" class="edge-path" marker-end="url(#arrow_point)" stroke-width="1" fill="none"/>
      </g>
      <g class="edge" id="edge-L-block17-block1-0">
        <path d="M 185.00 5758.00 C 185.00 5766.33, 185.00 5774.67, 318.42 5793.94 C 451.83 5813.22, 718.67 5843.44, 985.50 5873.65" class="edge-path" stroke-width="1" marker-end="url(#arrow_point)" fill="none"/>
      </g>
      <g class="edge" id="edge-L-block5-block18-0">
        <path d="M 592.5 2881.5999999999995 L 1042.6 2881.5999999999995" class="edge-path" marker-end="url(#arrow_point)" stroke-width="1" fill="none"/>
      </g>
      <g class="edge" id="edge-L-block5-block6-0">
        <path d="M 442.50 3157.60 C 442.50 3173.67, 442.50 3189.73, 569.16 3285.97 C 695.83 3382.21, 949.16 3558.62, 1202.48 3735.02" class="edge-path" marker-end="url(#arrow_point)" stroke-width="1" fill="none"/>
      </g>
      <g class="edge" id="edge-L-block18-block19-0">
        <path d="M 1138.75 3070.32 C 1125.87 3115.48, 1112.98 3160.64, 1106.54 3389.05 C 1100.10 3617.47, 1100.10 4029.13, 1100.10 4440.80" class="edge-path" stroke-width="1" fill="none" marker-end="url(#arrow_point)"/>
      </g>
      <g class="edge" id="edge-L-block18-block6-0">
        <path d="M 1294.51 2975.99 C 1377.20 3052.60, 1459.90 3129.20, 1473.02 3241.33 C 1486.15 3353.46, 1429.70 3501.12, 1373.24 3648.78" class="edge-path" marker-end="url(#arrow_point)" fill="none" stroke-width="1"/>
      </g>
      <g class="edge" id="edge-L-block19-block20-0">
        <path d="M 1100.10 5029.60 C 1100.10 5037.93, 1100.10 5046.27, 1100.10 5054.60 C 1100.10 5062.93, 1100.10 5071.27, 1100.10 5079.60" class="edge-path" stroke-width="1" marker-end="url(#arrow_point)" fill="none"/>
      </g>
      <g class="edge" id="edge-L-block19-block6-0">
        <path d="M 1146.5385496557212 4531.943393457628 L 1266.9048401837613 4005.1129059381205" class="edge-path" marker-end="url(#arrow_point)" fill="none" stroke-width="1"/>
      </g>
      <g class="edge" id="edge-L-block20-block1-0">
        <path d="M 1100.10 5758.00 C 1100.10 5766.33, 1100.10 5774.67, 1101.12 5783.00 C 1102.15 5791.33, 1104.20 5799.67, 1106.24 5808.00" class="edge-path" stroke-width="1" marker-end="url(#arrow_point)" fill="none"/>
      </g>
      <g class="edge" id="edge-L-block6-block21-0">
        <path d="M 1461.3 3810.7999999999997 L 1593.8 3810.7999999999997" class="edge-path" marker-end="url(#arrow_point)" stroke-width="1" fill="none"/>
      </g>
      <g class="edge" id="edge-L-block6-block7-0">
        <path d="M 1311.30 4086.80 C 1311.30 4196.47, 1311.30 4306.13, 1374.32 4402.15 C 1437.34 4498.16, 1563.37 4580.51, 1689.41 4662.87" class="edge-path" stroke-width="1" marker-end="url(#arrow_point)" fill="none"/>
      </g>
      <g class="edge" id="edge-L-block21-block22-0">
        <path d="M 1689.48 3998.59 L 1513.36 4564.97" class="edge-path" stroke-width="1" fill="none" marker-end="url(#arrow_point)"/>
      </g>
      <g class="edge" id="edge-L-block21-block7-0">
        <path d="M 1790.37 4013.80 C 1821.11 4147.80, 1851.86 4281.80, 1861.53 4370.85 C 1871.21 4459.91, 1859.82 4504.01, 1848.42 4548.12" class="edge-path" fill="none" stroke-width="1" marker-end="url(#arrow_point)"/>
      </g>
      <g class="edge" id="edge-L-block22-block23-0">
        <path d="M 1450.10 5029.60 C 1450.10 5037.93, 1450.10 5046.27, 1450.10 5054.60 C 1450.10 5062.93, 1450.10 5071.27, 1450.10 5079.60" class="edge-path" stroke-width="1" fill="none" marker-end="url(#arrow_point)"/>
      </g>
      <g class="edge" id="edge-L-block22-block7-0">
        <path d="M 1600.1 4735.199999999999 L 1650.1 4735.199999999999" class="edge-path" stroke-width="1" marker-end="url(#arrow_point)" fill="none"/>
      </g>
      <g class="edge" id="edge-L-block23-block1-0">
        <path d="M 1450.10 5758.00 C 1450.10 5766.33, 1450.10 5774.67, 1419.60 5788.87 C 1389.10 5803.08, 1328.10 5823.16, 1267.10 5843.25" class="edge-path" fill="none" marker-end="url(#arrow_point)" stroke-width="1"/>
      </g>
      <g class="edge" id="edge-L-block7-block24-0">
        <path d="M 1841.6633826908228 4535.676624151113 L 2277.2684471348557 2444.5717292183253" class="edge-path" fill="none" stroke-width="1" marker-end="url(#arrow_point)"/>
      </g>
      <g class="edge" id="edge-L-block7-block8-0">
        <path d="M 1848.42 4922.28 C 1859.82 4966.39, 1871.21 5010.49, 1993.39 5087.13 C 2115.57 5163.76, 2348.53 5272.91, 2581.50 5382.07" class="edge-path" stroke-width="1" fill="none" marker-end="url(#arrow_point)"/>
      </g>
      <g class="edge" id="edge-L-block24-block25-0">
        <path d="M 2342.12 2490.87 C 2343.92 2513.04, 2345.71 2535.22, 2346.60 2550.48 C 2347.50 2565.73, 2347.50 2574.07, 2347.50 2582.40" class="edge-path" stroke-width="1" fill="none" marker-end="url(#arrow_point)"/>
      </g>
      <g class="edge" id="edge-L-block24-block8-0">
        <path d="M 2423.60 2328.34 C 2505.70 2404.69, 2587.80 2481.05, 2627.73 2976.39 C 2667.65 3471.73, 2665.40 4386.07, 2663.15 5300.40" class="edge-path" marker-end="url(#arrow_point)" stroke-width="1" fill="none"/>
      </g>
      <g class="edge" id="edge-L-block25-block26-0">
        <path d="M 2293.10 3072.28 L 2255.00 3230.80" class="edge-path" marker-end="url(#arrow_point)" fill="none" stroke-width="1"/>
      </g>
      <g class="edge" id="edge-L-block25-block8-0">
        <path d="M 2433.75 3008.76 C 2478.30 3074.44, 2522.85 3140.12, 2545.13 3481.09 C 2567.40 3822.07, 2567.40 4438.33, 2577.80 4787.43 C 2609.02 5218.47, 2629.83 5300.40, 2629.83 5300.40" class="edge-path" fill="none" stroke-width="1" marker-end="url(#arrow_point)"/>
      </g>
      <g class="edge" id="edge-L-block26-block27-0">
        <path d="M 2181.28 4105.76 L 2103.80 4506.40" class="edge-path" stroke-width="1" marker-end="url(#arrow_point)" fill="none"/>
      </g>
      <g class="edge" id="edge-L-block26-block28-0">
        <path d="M 2328.72 4105.76 C 2354.54 4209.11, 2380.37 4312.45, 2393.29 4391.49 C 2406.20 4470.53, 2406.20 4525.27, 2406.20 4580.00" class="edge-path" marker-end="url(#arrow_point)" fill="none" stroke-width="1"/>
      </g>
      <g class="edge" id="edge-L-block27-block29-0">
        <path d="M 2103.80 4964.00 C 2103.80 4994.20, 2103.80 5024.40, 2122.08 5083.53 C 2140.36 5142.67, 2176.92 5230.73, 2213.48 5318.80" class="edge-path" marker-end="url(#arrow_point)" stroke-width="1" fill="none"/>
      </g>
      <g class="edge" id="edge-L-block28-block29-0">
        <path d="M 2406.20 4890.40 C 2406.20 4945.13, 2406.20 4999.87, 2387.92 5071.27 C 2369.64 5142.67, 2333.08 5230.73, 2296.52 5318.80" class="edge-path" marker-end="url(#arrow_point)" fill="none" stroke-width="1"/>
      </g>
      <g class="edge" id="edge-L-block29-block1-0">
        <path d="M 2255.00 5518.80 C 2255.00 5606.87, 2255.00 5694.93, 2090.35 5754.52 C 1925.70 5814.10, 1596.40 5845.20, 1267.10 5876.30" class="edge-path" marker-end="url(#arrow_point)" fill="none" stroke-width="1"/>
      </g>
      <g class="edge" id="edge-L-block8-block1-0">
        <path d="M 2659.90 5537.20 C 2659.90 5619.13, 2659.90 5701.07, 2427.77 5758.17 C 2195.63 5815.27, 1731.37 5847.54, 1267.10 5879.81" class="edge-path" fill="none" stroke-width="1" marker-end="url(#arrow_point)"/>
      </g>
    </g>
    <g class="edgeLabels">

    </g>
    <g class="nodes">
      <g class="node" id="node-block0">
        <polygon points="581.7000000000003,0 731.7000000000003,303.2 581.7000000000003,606.4 431.7000000000003,303.2" style="fill:#d4edda !important;stroke:#28a745 !important;stroke-width:2px !important"/>
        <text x="581.7000000000003" y="303.2" class="label" style="fill: #000000" dominant-baseline="central" text-anchor="middle"><tspan x="581.7000000000003" y="303.2" dy="-4.8em">block0</tspan><tspan x="581.7000000000003" dy="1.2em"></tspan><tspan x="581.7000000000003" dy="1.2em">r0 ← cap[0]</tspan><tspan x="581.7000000000003" dy="1.2em">local[1] ← r0</tspan><tspan x="581.7000000000003" dy="1.2em">r2 ← local[1]</tspan><tspan x="581.7000000000003" dy="1.2em">cap[2] ← r2</tspan><tspan x="581.7000000000003" dy="1.2em">r3 ← tuple?(r2)</tspan><tspan x="581.7000000000003" dy="1.2em">---</tspan><tspan x="581.7000000000003" dy="1.2em">branch r3 → block9 / block3</tspan></text>
      </g>
      <g class="node" id="node-block1">
        <path d="M 1067.1 5807.999999999999 H 1185.5 A 81.6 81.6 0 0 1 1185.5 5971.199999999999 H 1067.1 A 81.6 81.6 0 0 1 1067.1 5807.999999999999 Z" style="fill:#cce5ff !important;stroke:#004085 !important;stroke-width:2px !important"/>
        <text x="1126.3" y="5889.599999999999" class="label" dominant-baseline="central" style="fill: #000000" text-anchor="middle"><tspan x="1126.3" y="5889.599999999999" dy="-1.7999999999999998em">block1</tspan><tspan x="1126.3" dy="1.2em"></tspan><tspan x="1126.3" dy="1.2em">---</tspan><tspan x="1126.3" dy="1.2em">return r1</tspan></text>
      </g>
      <g class="node" id="node-block10">
        <polygon points="839.2,656.4 989.2,950.8 839.2,1245.1999999999998 689.2,950.8" style="fill:#fff3cd !important;stroke:#856404 !important;stroke-width:2px !important"/>
        <text x="839.2" y="950.8" class="label" style="fill: #000000" text-anchor="middle" dominant-baseline="central"><tspan x="839.2" y="950.8" dy="-4.2em">block10</tspan><tspan x="839.2" dy="1.2em"></tspan><tspan x="839.2" dy="1.2em">r8 ← cap[2]</tspan><tspan x="839.2" dy="1.2em">r9 ← r8[0]?</tspan><tspan x="839.2" dy="1.2em">r10 ← :lit</tspan><tspan x="839.2" dy="1.2em">r11 ← r9 = r10</tspan><tspan x="839.2" dy="1.2em">---</tspan><tspan x="839.2" dy="1.2em">branch r11 → block11 / block3</tspan></text>
      </g>
      <g class="node" id="node-block11">
        <rect x="96.6" y="1416" width="156.8" height="347.2" style="fill:#f8f9fa !important;stroke:#6c757d !important"/>
        <text x="175" y="1589.6" class="label" dominant-baseline="central" text-anchor="middle" style="fill: #000000"><tspan x="175" y="1589.6" dy="-4.8em">block11</tspan><tspan x="175" dy="1.2em"></tspan><tspan x="175" dy="1.2em">r12 ← cap[2]</tspan><tspan x="175" dy="1.2em">r13 ← r12[1]?</tspan><tspan x="175" dy="1.2em">cap[3] ← r13</tspan><tspan x="175" dy="1.2em">r14 ← cap[3]</tspan><tspan x="175" dy="1.2em">r1 ← r14</tspan><tspan x="175" dy="1.2em">---</tspan><tspan x="175" dy="1.2em">jump → block1</tspan></text>
      </g>
      <g class="node" id="node-block12">
        <polygon points="706.2000000000003,1295.1999999999998 856.2000000000003,1589.6 706.2000000000003,1883.9999999999998 556.2000000000003,1589.6" style="fill:#fff3cd !important;stroke:#856404 !important;stroke-width:2px !important"/>
        <text x="706.2000000000003" y="1589.6" class="label" style="fill: #000000" text-anchor="middle" dominant-baseline="central"><tspan x="706.2000000000003" y="1589.6" dy="-4.2em">block12</tspan><tspan x="706.2000000000003" dy="1.2em"></tspan><tspan x="706.2000000000003" dy="1.2em">r17 ← cap[4]</tspan><tspan x="706.2000000000003" dy="1.2em">r18 ← len(r17)</tspan><tspan x="706.2000000000003" dy="1.2em">r19 ← 2</tspan><tspan x="706.2000000000003" dy="1.2em">r20 ← r18 = r19</tspan><tspan x="706.2000000000003" dy="1.2em">---</tspan><tspan x="706.2000000000003" dy="1.2em">branch r20 → block13 / block4</tspan></text>
      </g>
      <g class="node" id="node-block13">
        <polygon points="1713.8,1295.1999999999998 1863.8,1589.6 1713.8,1883.9999999999998 1563.8,1589.6" style="fill:#fff3cd !important;stroke:#856404 !important;stroke-width:2px !important"/>
        <text x="1713.8" y="1589.6" class="label" text-anchor="middle" style="fill: #000000" dominant-baseline="central"><tspan x="1713.8" y="1589.6" dy="-4.2em">block13</tspan><tspan x="1713.8" dy="1.2em"></tspan><tspan x="1713.8" dy="1.2em">r21 ← cap[4]</tspan><tspan x="1713.8" dy="1.2em">r22 ← r21[0]?</tspan><tspan x="1713.8" dy="1.2em">r23 ← :neg</tspan><tspan x="1713.8" dy="1.2em">r24 ← r22 = r23</tspan><tspan x="1713.8" dy="1.2em">---</tspan><tspan x="1713.8" dy="1.2em">branch r24 → block14 / block4</tspan></text>
      </g>
      <g class="node" id="node-block14">
        <rect x="1887.5" y="1985.9999999999998" width="195.2" height="494.4" style="fill:#f8f9fa !important;stroke:#6c757d !important"/>
        <text x="1985.1" y="2233.2" class="label" style="fill: #000000" text-anchor="middle" dominant-baseline="central"><tspan x="1985.1" y="2233.2" dy="-7.199999999999999em">block14</tspan><tspan x="1985.1" dy="1.2em"></tspan><tspan x="1985.1" dy="1.2em">r25 ← cap[4]</tspan><tspan x="1985.1" dy="1.2em">r26 ← r25[1]?</tspan><tspan x="1985.1" dy="1.2em">cap[5] ← r26</tspan><tspan x="1985.1" dy="1.2em">r27 ← 0</tspan><tspan x="1985.1" dy="1.2em">r28 ← cap[5]</tspan><tspan x="1985.1" dy="1.2em">r29 ← global(461)</tspan><tspan x="1985.1" dy="1.2em">r30 ← r29(r28)</tspan><tspan x="1985.1" dy="1.2em">r31 ← r27 - r30</tspan><tspan x="1985.1" dy="1.2em">r1 ← r31</tspan><tspan x="1985.1" dy="1.2em">---</tspan><tspan x="1985.1" dy="1.2em">jump → block1</tspan></text>
      </g>
      <g class="node" id="node-block15">
        <polygon points="406.7000000000003,1938.7999999999997 556.7000000000003,2233.2 406.7000000000003,2527.5999999999995 256.7000000000003,2233.2" style="fill:#fff3cd !important;stroke:#856404 !important;stroke-width:2px !important"/>
        <text x="406.7000000000003" y="2233.2" class="label" style="fill: #000000" text-anchor="middle" dominant-baseline="central"><tspan x="406.7000000000003" y="2233.2" dy="-4.2em">block15</tspan><tspan x="406.7000000000003" dy="1.2em"></tspan><tspan x="406.7000000000003" dy="1.2em">r34 ← cap[6]</tspan><tspan x="406.7000000000003" dy="1.2em">r35 ← len(r34)</tspan><tspan x="406.7000000000003" dy="1.2em">r36 ← 3</tspan><tspan x="406.7000000000003" dy="1.2em">r37 ← r35 = r36</tspan><tspan x="406.7000000000003" dy="1.2em">---</tspan><tspan x="406.7000000000003" dy="1.2em">branch r37 → block16 / block5</tspan></text>
      </g>
      <g class="node" id="node-block16">
        <polygon points="185,4440.799999999999 335,4735.199999999999 185,5029.599999999999 35,4735.199999999999" style="fill:#fff3cd !important;stroke:#856404 !important;stroke-width:2px !important"/>
        <text x="185" y="4735.199999999999" class="label" text-anchor="middle" style="fill: #000000" dominant-baseline="central"><tspan x="185" y="4735.199999999999" dy="-4.2em">block16</tspan><tspan x="185" dy="1.2em"></tspan><tspan x="185" dy="1.2em">r38 ← cap[6]</tspan><tspan x="185" dy="1.2em">r39 ← r38[0]?</tspan><tspan x="185" dy="1.2em">r40 ← :add</tspan><tspan x="185" dy="1.2em">r41 ← r39 = r40</tspan><tspan x="185" dy="1.2em">---</tspan><tspan x="185" dy="1.2em">branch r41 → block17 / block5</tspan></text>
      </g>
      <g class="node" id="node-block17">
        <rect x="87.4" y="5079.599999999999" width="195.2" height="678.4" style="fill:#f8f9fa !important;stroke:#6c757d !important"/>
        <text x="185" y="5418.799999999999" class="label" text-anchor="middle" dominant-baseline="central" style="fill: #000000"><tspan x="185" y="5418.799999999999" dy="-10.2em">block17</tspan><tspan x="185" dy="1.2em"></tspan><tspan x="185" dy="1.2em">r42 ← cap[6]</tspan><tspan x="185" dy="1.2em">r43 ← r42[1]?</tspan><tspan x="185" dy="1.2em">cap[7] ← r43</tspan><tspan x="185" dy="1.2em">r44 ← cap[6]</tspan><tspan x="185" dy="1.2em">r45 ← r44[2]?</tspan><tspan x="185" dy="1.2em">cap[8] ← r45</tspan><tspan x="185" dy="1.2em">r46 ← cap[7]</tspan><tspan x="185" dy="1.2em">r47 ← global(461)</tspan><tspan x="185" dy="1.2em">r48 ← r47(r46)</tspan><tspan x="185" dy="1.2em">r49 ← cap[8]</tspan><tspan x="185" dy="1.2em">r50 ← global(461)</tspan><tspan x="185" dy="1.2em">r51 ← r50(r49)</tspan><tspan x="185" dy="1.2em">r52 ← r48 + r51</tspan><tspan x="185" dy="1.2em">r1 ← r52</tspan><tspan x="185" dy="1.2em">---</tspan><tspan x="185" dy="1.2em">jump → block1</tspan></text>
      </g>
      <g class="node" id="node-block18">
        <polygon points="1192.6,2587.1999999999994 1342.6,2881.5999999999995 1192.6,3175.999999999999 1042.6,2881.5999999999995" style="fill:#fff3cd !important;stroke:#856404 !important;stroke-width:2px !important"/>
        <text x="1192.6" y="2881.5999999999995" class="label" text-anchor="middle" dominant-baseline="central" style="fill: #000000"><tspan x="1192.6" y="2881.5999999999995" dy="-4.2em">block18</tspan><tspan x="1192.6" dy="1.2em"></tspan><tspan x="1192.6" dy="1.2em">r55 ← cap[9]</tspan><tspan x="1192.6" dy="1.2em">r56 ← len(r55)</tspan><tspan x="1192.6" dy="1.2em">r57 ← 3</tspan><tspan x="1192.6" dy="1.2em">r58 ← r56 = r57</tspan><tspan x="1192.6" dy="1.2em">---</tspan><tspan x="1192.6" dy="1.2em">branch r58 → block19 / block6</tspan></text>
      </g>
      <g class="node" id="node-block19">
        <polygon points="1100.1,4440.799999999999 1250.1,4735.199999999999 1100.1,5029.599999999999 950.0999999999999,4735.199999999999" style="fill:#fff3cd !important;stroke:#856404 !important;stroke-width:2px !important"/>
        <text x="1100.1" y="4735.199999999999" class="label" text-anchor="middle" dominant-baseline="central" style="fill: #000000"><tspan x="1100.1" y="4735.199999999999" dy="-4.2em">block19</tspan><tspan x="1100.1" dy="1.2em"></tspan><tspan x="1100.1" dy="1.2em">r59 ← cap[9]</tspan><tspan x="1100.1" dy="1.2em">r60 ← r59[0]?</tspan><tspan x="1100.1" dy="1.2em">r61 ← :sub</tspan><tspan x="1100.1" dy="1.2em">r62 ← r60 = r61</tspan><tspan x="1100.1" dy="1.2em">---</tspan><tspan x="1100.1" dy="1.2em">branch r62 → block20 / block6</tspan></text>
      </g>
      <g class="node" id="node-block20">
        <rect x="1002.4999999999999" y="5079.599999999999" width="195.2" height="678.4" style="fill:#f8f9fa !important;stroke:#6c757d !important"/>
        <text x="1100.1" y="5418.799999999999" class="label" style="fill: #000000" text-anchor="middle" dominant-baseline="central"><tspan x="1100.1" y="5418.799999999999" dy="-10.2em">block20</tspan><tspan x="1100.1" dy="1.2em"></tspan><tspan x="1100.1" dy="1.2em">r63 ← cap[9]</tspan><tspan x="1100.1" dy="1.2em">r64 ← r63[1]?</tspan><tspan x="1100.1" dy="1.2em">cap[10] ← r64</tspan><tspan x="1100.1" dy="1.2em">r65 ← cap[9]</tspan><tspan x="1100.1" dy="1.2em">r66 ← r65[2]?</tspan><tspan x="1100.1" dy="1.2em">cap[11] ← r66</tspan><tspan x="1100.1" dy="1.2em">r67 ← cap[10]</tspan><tspan x="1100.1" dy="1.2em">r68 ← global(461)</tspan><tspan x="1100.1" dy="1.2em">r69 ← r68(r67)</tspan><tspan x="1100.1" dy="1.2em">r70 ← cap[11]</tspan><tspan x="1100.1" dy="1.2em">r71 ← global(461)</tspan><tspan x="1100.1" dy="1.2em">r72 ← r71(r70)</tspan><tspan x="1100.1" dy="1.2em">r73 ← r69 - r72</tspan><tspan x="1100.1" dy="1.2em">r1 ← r73</tspan><tspan x="1100.1" dy="1.2em">---</tspan><tspan x="1100.1" dy="1.2em">jump → block1</tspan></text>
      </g>
      <g class="node" id="node-block21">
        <polygon points="1743.8,3516.3999999999996 1893.8,3810.7999999999997 1743.8,4105.2 1593.8,3810.7999999999997" style="fill:#fff3cd !important;stroke:#856404 !important;stroke-width:2px !important"/>
        <text x="1743.8" y="3810.7999999999997" class="label" style="fill: #000000" dominant-baseline="central" text-anchor="middle"><tspan x="1743.8" y="3810.7999999999997" dy="-4.2em">block21</tspan><tspan x="1743.8" dy="1.2em"></tspan><tspan x="1743.8" dy="1.2em">r76 ← cap[12]</tspan><tspan x="1743.8" dy="1.2em">r77 ← len(r76)</tspan><tspan x="1743.8" dy="1.2em">r78 ← 3</tspan><tspan x="1743.8" dy="1.2em">r79 ← r77 = r78</tspan><tspan x="1743.8" dy="1.2em">---</tspan><tspan x="1743.8" dy="1.2em">branch r79 → block22 / block7</tspan></text>
      </g>
      <g class="node" id="node-block22">
        <polygon points="1450.1,4440.799999999999 1600.1,4735.199999999999 1450.1,5029.599999999999 1300.1,4735.199999999999" style="fill:#fff3cd !important;stroke:#856404 !important;stroke-width:2px !important"/>
        <text x="1450.1" y="4735.199999999999" class="label" text-anchor="middle" dominant-baseline="central" style="fill: #000000"><tspan x="1450.1" y="4735.199999999999" dy="-4.2em">block22</tspan><tspan x="1450.1" dy="1.2em"></tspan><tspan x="1450.1" dy="1.2em">r80 ← cap[12]</tspan><tspan x="1450.1" dy="1.2em">r81 ← r80[0]?</tspan><tspan x="1450.1" dy="1.2em">r82 ← :mul</tspan><tspan x="1450.1" dy="1.2em">r83 ← r81 = r82</tspan><tspan x="1450.1" dy="1.2em">---</tspan><tspan x="1450.1" dy="1.2em">branch r83 → block23 / block7</tspan></text>
      </g>
      <g class="node" id="node-block23">
        <rect x="1352.5" y="5079.599999999999" width="195.2" height="678.4" style="fill:#f8f9fa !important;stroke:#6c757d !important"/>
        <text x="1450.1" y="5418.799999999999" class="label" text-anchor="middle" style="fill: #000000" dominant-baseline="central"><tspan x="1450.1" y="5418.799999999999" dy="-10.2em">block23</tspan><tspan x="1450.1" dy="1.2em"></tspan><tspan x="1450.1" dy="1.2em">r84 ← cap[12]</tspan><tspan x="1450.1" dy="1.2em">r85 ← r84[1]?</tspan><tspan x="1450.1" dy="1.2em">cap[13] ← r85</tspan><tspan x="1450.1" dy="1.2em">r86 ← cap[12]</tspan><tspan x="1450.1" dy="1.2em">r87 ← r86[2]?</tspan><tspan x="1450.1" dy="1.2em">cap[14] ← r87</tspan><tspan x="1450.1" dy="1.2em">r88 ← cap[13]</tspan><tspan x="1450.1" dy="1.2em">r89 ← global(461)</tspan><tspan x="1450.1" dy="1.2em">r90 ← r89(r88)</tspan><tspan x="1450.1" dy="1.2em">r91 ← cap[14]</tspan><tspan x="1450.1" dy="1.2em">r92 ← global(461)</tspan><tspan x="1450.1" dy="1.2em">r93 ← r92(r91)</tspan><tspan x="1450.1" dy="1.2em">r94 ← r90 * r93</tspan><tspan x="1450.1" dy="1.2em">r1 ← r94</tspan><tspan x="1450.1" dy="1.2em">---</tspan><tspan x="1450.1" dy="1.2em">jump → block1</tspan></text>
      </g>
      <g class="node" id="node-block24">
        <polygon points="2321.3,1933.9999999999998 2471.3,2233.2 2321.3,2532.3999999999996 2171.3,2233.2" style="fill:#fff3cd !important;stroke:#856404 !important;stroke-width:2px !important"/>
        <text x="2321.3" y="2233.2" class="label" style="fill: #000000" dominant-baseline="central" text-anchor="middle"><tspan x="2321.3" y="2233.2" dy="-4.2em">block24</tspan><tspan x="2321.3" dy="1.2em"></tspan><tspan x="2321.3" dy="1.2em">r97 ← cap[15]</tspan><tspan x="2321.3" dy="1.2em">r98 ← len(r97)</tspan><tspan x="2321.3" dy="1.2em">r99 ← 3</tspan><tspan x="2321.3" dy="1.2em">r100 ← r98 = r99</tspan><tspan x="2321.3" dy="1.2em">---</tspan><tspan x="2321.3" dy="1.2em">branch r100 → block25 / block8</tspan></text>
      </g>
      <g class="node" id="node-block25">
        <polygon points="2347.5,2582.3999999999996 2497.5,2881.5999999999995 2347.5,3180.7999999999997 2197.5,2881.5999999999995" style="fill:#fff3cd !important;stroke:#856404 !important;stroke-width:2px !important"/>
        <text x="2347.5" y="2881.5999999999995" class="label" text-anchor="middle" style="fill: #000000" dominant-baseline="central"><tspan x="2347.5" y="2881.5999999999995" dy="-4.2em">block25</tspan><tspan x="2347.5" dy="1.2em"></tspan><tspan x="2347.5" dy="1.2em">r101 ← cap[15]</tspan><tspan x="2347.5" dy="1.2em">r102 ← r101[0]?</tspan><tspan x="2347.5" dy="1.2em">r103 ← :div</tspan><tspan x="2347.5" dy="1.2em">r104 ← r102 = r103</tspan><tspan x="2347.5" dy="1.2em">---</tspan><tspan x="2347.5" dy="1.2em">branch r104 → block26 / block8</tspan></text>
      </g>
      <g class="node" id="node-block26">
        <polygon points="2255,3230.7999999999997 2405,3810.7999999999997 2255,4390.799999999999 2105,3810.7999999999997" style="fill:#fff3cd !important;stroke:#856404 !important;stroke-width:2px !important"/>
        <text x="2255" y="3810.7999999999997" class="label" text-anchor="middle" style="fill: #000000" dominant-baseline="central"><tspan x="2255" y="3810.7999999999997" dy="-13.2em">block26</tspan><tspan x="2255" dy="1.2em"></tspan><tspan x="2255" dy="1.2em">r105 ← cap[15]</tspan><tspan x="2255" dy="1.2em">r106 ← r105[1]?</tspan><tspan x="2255" dy="1.2em">cap[16] ← r106</tspan><tspan x="2255" dy="1.2em">r107 ← cap[15]</tspan><tspan x="2255" dy="1.2em">r108 ← r107[2]?</tspan><tspan x="2255" dy="1.2em">cap[17] ← r108</tspan><tspan x="2255" dy="1.2em">r109 ← cap[17]</tspan><tspan x="2255" dy="1.2em">r110 ← global(461)</tspan><tspan x="2255" dy="1.2em">r111 ← r110(r109)</tspan><tspan x="2255" dy="1.2em">cap[18] ← r111</tspan><tspan x="2255" dy="1.2em">pop r111</tspan><tspan x="2255" dy="1.2em">r112 ← cap[16]</tspan><tspan x="2255" dy="1.2em">r113 ← global(461)</tspan><tspan x="2255" dy="1.2em">r114 ← r113(r112)</tspan><tspan x="2255" dy="1.2em">cap[19] ← r114</tspan><tspan x="2255" dy="1.2em">pop r114</tspan><tspan x="2255" dy="1.2em">r115 ← cap[18]</tspan><tspan x="2255" dy="1.2em">r116 ← 0</tspan><tspan x="2255" dy="1.2em">r117 ← r115 = r116</tspan><tspan x="2255" dy="1.2em">---</tspan><tspan x="2255" dy="1.2em">branch r117 → block27 / block28</tspan></text>
      </g>
      <g class="node" id="node-block27">
        <rect x="1953.8000000000002" y="4506.399999999999" width="300" height="457.59999999999997" style="fill:#f8f9fa !important;stroke:#6c757d !important"/>
        <text x="2103.8" y="4735.199999999999" class="label" dominant-baseline="central" style="fill: #000000" text-anchor="middle"><tspan x="2103.8" y="4735.199999999999" dy="-6.6em">block27</tspan><tspan x="2103.8" dy="1.2em"></tspan><tspan x="2103.8" dy="1.2em">r119 ← 1</tspan><tspan x="2103.8" dy="1.2em">r120 ← :division-by-zero</tspan><tspan x="2103.8" dy="1.2em">r121 ← &amp;quot;division by zero in expression&amp;quot;</tspan><tspan x="2103.8" dy="1.2em">r122 ← global(12)</tspan><tspan x="2103.8" dy="1.2em">r123 ← r122(r120, r121)</tspan><tspan x="2103.8" dy="1.2em">r124 ← global(143)</tspan><tspan x="2103.8" dy="1.2em">tailcall r124(r119, r123)</tspan><tspan x="2103.8" dy="1.2em">r118 ← r125</tspan><tspan x="2103.8" dy="1.2em">---</tspan><tspan x="2103.8" dy="1.2em">jump → block29</tspan></text>
      </g>
      <g class="node" id="node-block28">
        <rect x="2303.7999999999997" y="4579.999999999999" width="204.79999999999998" height="310.4" style="fill:#f8f9fa !important;stroke:#6c757d !important"/>
        <text x="2406.2" y="4735.199999999999" class="label" text-anchor="middle" style="fill: #000000" dominant-baseline="central"><tspan x="2406.2" y="4735.199999999999" dy="-4.2em">block28</tspan><tspan x="2406.2" dy="1.2em"></tspan><tspan x="2406.2" dy="1.2em">r126 ← cap[19]</tspan><tspan x="2406.2" dy="1.2em">r127 ← cap[18]</tspan><tspan x="2406.2" dy="1.2em">r128 ← r126 / r127</tspan><tspan x="2406.2" dy="1.2em">r118 ← r128</tspan><tspan x="2406.2" dy="1.2em">---</tspan><tspan x="2406.2" dy="1.2em">jump → block29</tspan></text>
      </g>
      <g class="node" id="node-block29">
        <rect x="2176.6" y="5318.799999999999" width="156.8" height="200" style="fill:#f8f9fa !important;stroke:#6c757d !important"/>
        <text x="2255" y="5418.799999999999" class="label" style="fill: #000000" text-anchor="middle" dominant-baseline="central"><tspan x="2255" y="5418.799999999999" dy="-2.4em">block29</tspan><tspan x="2255" dy="1.2em"></tspan><tspan x="2255" dy="1.2em">r1 ← r118</tspan><tspan x="2255" dy="1.2em">---</tspan><tspan x="2255" dy="1.2em">jump → block1</tspan></text>
      </g>
      <g class="node" id="node-block3">
        <polygon points="1056.2,1313.6 1206.2,1589.6 1056.2,1865.6 906.2,1589.6" style="fill:#fff3cd !important;stroke:#856404 !important;stroke-width:2px !important"/>
        <text x="1056.2" y="1589.6" class="label" style="fill: #000000" dominant-baseline="central" text-anchor="middle"><tspan x="1056.2" y="1589.6" dy="-3.5999999999999996em">block3</tspan><tspan x="1056.2" dy="1.2em"></tspan><tspan x="1056.2" dy="1.2em">r15 ← local[1]</tspan><tspan x="1056.2" dy="1.2em">cap[4] ← r15</tspan><tspan x="1056.2" dy="1.2em">r16 ← tuple?(r15)</tspan><tspan x="1056.2" dy="1.2em">---</tspan><tspan x="1056.2" dy="1.2em">branch r16 → block12 / block4</tspan></text>
      </g>
      <g class="node" id="node-block4">
        <polygon points="581.7000000000003,1957.1999999999998 731.7000000000003,2233.2 581.7000000000003,2509.2 431.7000000000003,2233.2" style="fill:#fff3cd !important;stroke:#856404 !important;stroke-width:2px !important"/>
        <text x="581.7000000000003" y="2233.2" class="label" text-anchor="middle" dominant-baseline="central" style="fill: #000000"><tspan x="581.7000000000003" y="2233.2" dy="-3.5999999999999996em">block4</tspan><tspan x="581.7000000000003" dy="1.2em"></tspan><tspan x="581.7000000000003" dy="1.2em">r32 ← local[1]</tspan><tspan x="581.7000000000003" dy="1.2em">cap[6] ← r32</tspan><tspan x="581.7000000000003" dy="1.2em">r33 ← tuple?(r32)</tspan><tspan x="581.7000000000003" dy="1.2em">---</tspan><tspan x="581.7000000000003" dy="1.2em">branch r33 → block15 / block5</tspan></text>
      </g>
      <g class="node" id="node-block5">
        <polygon points="442.5,2605.5999999999995 592.5,2881.5999999999995 442.5,3157.5999999999995 292.5,2881.5999999999995" style="fill:#fff3cd !important;stroke:#856404 !important;stroke-width:2px !important"/>
        <text x="442.5" y="2881.5999999999995" class="label" dominant-baseline="central" text-anchor="middle" style="fill: #000000"><tspan x="442.5" y="2881.5999999999995" dy="-3.5999999999999996em">block5</tspan><tspan x="442.5" dy="1.2em"></tspan><tspan x="442.5" dy="1.2em">r53 ← local[1]</tspan><tspan x="442.5" dy="1.2em">cap[9] ← r53</tspan><tspan x="442.5" dy="1.2em">r54 ← tuple?(r53)</tspan><tspan x="442.5" dy="1.2em">---</tspan><tspan x="442.5" dy="1.2em">branch r54 → block18 / block6</tspan></text>
      </g>
      <g class="node" id="node-block6">
        <polygon points="1311.3,3534.7999999999997 1461.3,3810.7999999999997 1311.3,4086.7999999999997 1161.3,3810.7999999999997" style="fill:#fff3cd !important;stroke:#856404 !important;stroke-width:2px !important"/>
        <text x="1311.3" y="3810.7999999999997" class="label" style="fill: #000000" dominant-baseline="central" text-anchor="middle"><tspan x="1311.3" y="3810.7999999999997" dy="-3.5999999999999996em">block6</tspan><tspan x="1311.3" dy="1.2em"></tspan><tspan x="1311.3" dy="1.2em">r74 ← local[1]</tspan><tspan x="1311.3" dy="1.2em">cap[12] ← r74</tspan><tspan x="1311.3" dy="1.2em">r75 ← tuple?(r74)</tspan><tspan x="1311.3" dy="1.2em">---</tspan><tspan x="1311.3" dy="1.2em">branch r75 → block21 / block7</tspan></text>
      </g>
      <g class="node" id="node-block7">
        <polygon points="1800.1,4459.199999999999 1950.1,4735.199999999999 1800.1,5011.199999999999 1650.1,4735.199999999999" style="fill:#fff3cd !important;stroke:#856404 !important;stroke-width:2px !important"/>
        <text x="1800.1" y="4735.199999999999" class="label" dominant-baseline="central" style="fill: #000000" text-anchor="middle"><tspan x="1800.1" y="4735.199999999999" dy="-3.5999999999999996em">block7</tspan><tspan x="1800.1" dy="1.2em"></tspan><tspan x="1800.1" dy="1.2em">r95 ← local[1]</tspan><tspan x="1800.1" dy="1.2em">cap[15] ← r95</tspan><tspan x="1800.1" dy="1.2em">r96 ← tuple?(r95)</tspan><tspan x="1800.1" dy="1.2em">---</tspan><tspan x="1800.1" dy="1.2em">branch r96 → block24 / block8</tspan></text>
      </g>
      <g class="node" id="node-block8">
        <rect x="2581.5" y="5300.4" width="156.8" height="236.79999999999998" style="fill:#f8f9fa !important;stroke:#6c757d !important"/>
        <text x="2659.9" y="5418.799999999999" class="label" style="fill: #000000" dominant-baseline="central" text-anchor="middle"><tspan x="2659.9" y="5418.799999999999" dy="-3em">block8</tspan><tspan x="2659.9" dy="1.2em"></tspan><tspan x="2659.9" dy="1.2em">r129 ← nil</tspan><tspan x="2659.9" dy="1.2em">r1 ← r129</tspan><tspan x="2659.9" dy="1.2em">---</tspan><tspan x="2659.9" dy="1.2em">jump → block1</tspan></text>
      </g>
      <g class="node" id="node-block9">
        <polygon points="607.5,661.1999999999999 757.5,950.8 607.5,1240.4 457.5,950.8" style="fill:#fff3cd !important;stroke:#856404 !important;stroke-width:2px !important"/>
        <text x="607.5" y="950.8" class="label" text-anchor="middle" dominant-baseline="central" style="fill: #000000"><tspan x="607.5" y="950.8" dy="-4.2em">block9</tspan><tspan x="607.5" dy="1.2em"></tspan><tspan x="607.5" dy="1.2em">r4 ← cap[2]</tspan><tspan x="607.5" dy="1.2em">r5 ← len(r4)</tspan><tspan x="607.5" dy="1.2em">r6 ← 2</tspan><tspan x="607.5" dy="1.2em">r7 ← r5 = r6</tspan><tspan x="607.5" dy="1.2em">---</tspan><tspan x="607.5" dy="1.2em">branch r7 → block10 / block3</tspan></text>
      </g>
    </g>
  </g>
</svg>
